<svg width="165" height="62" viewBox="0 0 165 62" fill="none" xmlns="http://www.w3.org/2000/svg">
<path d="M75.48 46L81.24 23.6H86.04L91.8 46H87.8L86.392 40.4H80.888L79.48 46H75.48ZM81.4 37.84H85.848L83.704 28.72H83.576L81.4 37.84Z" fill="#FFE000"/>
<path d="M101.781 46V28.06C102.44 27.8693 103.116 27.7393 103.809 27.67C104.52 27.5833 105.361 27.54 106.331 27.54C107.77 27.54 108.931 27.7567 109.815 28.19C110.717 28.6233 111.375 29.3167 111.791 30.27C112.225 31.2233 112.441 32.48 112.441 34.04C112.441 35.6867 112.242 37.004 111.843 37.992C111.445 38.98 110.847 39.6993 110.049 40.15C109.269 40.5833 108.29 40.8 107.111 40.8C106.921 40.8 106.583 40.774 106.097 40.722C105.629 40.67 105.231 40.6093 104.901 40.54V46H101.781ZM104.901 38.72H106.331C106.99 38.72 107.536 38.5813 107.969 38.304C108.42 38.0267 108.758 37.55 108.983 36.874C109.209 36.198 109.321 35.2533 109.321 34.04C109.321 32.8613 109.209 31.9427 108.983 31.284C108.758 30.6253 108.42 30.166 107.969 29.906C107.536 29.6287 106.99 29.49 106.331 29.49H104.901V38.72ZM115.942 46V27.8H119.062V46H115.942ZM127.376 46.26C126.648 46.26 125.972 46.1473 125.348 45.922C124.741 45.6967 124.256 45.2893 123.892 44.7C123.528 44.0933 123.346 43.2267 123.346 42.1V33H126.466V42.1C126.466 43.0013 126.683 43.6167 127.116 43.946C127.549 44.2753 128.026 44.44 128.546 44.44C128.875 44.44 129.161 44.388 129.404 44.284C129.664 44.1627 129.855 44.0413 129.976 43.92V33H133.096V46H130.886L130.496 45.22H130.366C130.089 45.48 129.716 45.7227 129.248 45.948C128.78 46.156 128.156 46.26 127.376 46.26ZM139.983 46.26C139.342 46.26 138.718 46.1993 138.111 46.078C137.504 45.974 137.002 45.8613 136.603 45.74V44.44H139.463C140.434 44.44 141.17 44.3013 141.673 44.024C142.193 43.7293 142.453 43.2613 142.453 42.62C142.453 42.1693 142.306 41.8053 142.011 41.528C141.716 41.2333 141.335 40.982 140.867 40.774C140.416 40.566 139.922 40.358 139.385 40.15C138.865 39.9247 138.371 39.6647 137.903 39.37C137.452 39.058 137.08 38.668 136.785 38.2C136.49 37.7147 136.343 37.108 136.343 36.38C136.343 34.9413 136.776 33.9793 137.643 33.494C138.527 32.9913 139.784 32.74 141.413 32.74C142.072 32.74 142.704 32.792 143.311 32.896C143.918 33 144.412 33.1213 144.793 33.26V34.56H141.933C141.222 34.56 140.633 34.69 140.165 34.95C139.697 35.21 139.463 35.6 139.463 36.12C139.463 36.5707 139.61 36.9433 139.905 37.238C140.2 37.5153 140.572 37.758 141.023 37.966C141.491 38.174 141.985 38.3907 142.505 38.616C143.042 38.824 143.536 39.084 143.987 39.396C144.455 39.6907 144.836 40.072 145.131 40.54C145.426 41.008 145.573 41.6147 145.573 42.36C145.573 43.4 145.365 44.206 144.949 44.778C144.55 45.3327 143.935 45.7227 143.103 45.948C142.288 46.156 141.248 46.26 139.983 46.26Z" fill="#0077FE"/>
<path d="M39.5472 18.8174H28.8631L33.3281 29.7008L23.7602 29.661L28.1455 39.1092H37.2349L41.7797 50.1123H52.4638L47.9191 38.9896L65.5 39.189L61.1546 29.661H44.0122L39.5472 18.8174Z" fill="#0077FE"/>
<path d="M20.6229 0L0 50.0718H10.8557L15.3606 38.989H24.3703L19.9452 29.5806H19.1877L26.2041 12.7173L27.2805 15.2687H37.845L31.4266 0H20.6229Z" fill="#FFE000"/>
</svg>
