<svg width="741" height="631" viewBox="0 0 741 631" fill="none" xmlns="http://www.w3.org/2000/svg">
<path d="M260 1L1 630H135L192.323 491H306L278.5 432L251 373H240.985L328 162L342 194H475L396 1H260Z" fill="black"/>
<path d="M655 630H521L463.677 491H406.839H350L295 373H355.008H415.015L359.5 238.5H493.5L521.731 306.154L549.177 373H602.772H685L740 491H654.603H597.765L655 630Z" fill="#030DFF"/>
<path d="M295 373L350 491M295 373H355.008H415.015M295 373H415.015M350 491H406.839H463.677M350 491H463.677M463.677 491L521 630H655L597.765 491M415.015 373L359.5 238.5H493.5M597.765 491H654.603H740M597.765 491H740M740 491L685 373H602.772H549.177M549.177 373L521.731 306.154L493.5 238.5M549.177 373L493.5 238.5M1 630L260 1H396L475 194H342L328 162L240.985 373H251L278.5 432L306 491H192.323L135 630H1Z" stroke="black"/>
</svg>
