<svg width="161" height="57" viewBox="0 0 161 57" fill="none" xmlns="http://www.w3.org/2000/svg">
<path d="M71.64 41L77.08 18.6H81.24L86.68 41H83.8L82.36 35.24H75.96L74.52 41H71.64ZM76.44 33H81.88L79.224 21.8H79.096L76.44 33Z" fill="#FFE000"/>
<path d="M96.8125 41V23.06C97.4712 22.8693 98.1298 22.7393 98.7885 22.67C99.4645 22.5833 100.193 22.54 100.973 22.54C102.359 22.54 103.469 22.7393 104.301 23.138C105.15 23.5367 105.757 24.2127 106.121 25.166C106.502 26.102 106.693 27.3933 106.693 29.04C106.693 30.7213 106.511 32.0473 106.147 33.018C105.8 33.9887 105.263 34.6733 104.535 35.072C103.807 35.4707 102.879 35.67 101.753 35.67C101.371 35.67 100.921 35.644 100.401 35.592C99.8978 35.54 99.4818 35.4793 99.1525 35.41V41H96.8125ZM99.1525 33.85H100.973C101.753 33.85 102.394 33.7113 102.897 33.434C103.399 33.1567 103.763 32.6713 103.989 31.978C104.231 31.2673 104.353 30.288 104.353 29.04C104.353 27.7747 104.231 26.7953 103.989 26.102C103.763 25.4087 103.399 24.9233 102.897 24.646C102.394 24.3687 101.753 24.23 100.973 24.23H99.1525V33.85ZM110.339 41V22.8H112.679V41H110.339ZM121.011 41.26C120.196 41.26 119.485 41.156 118.879 40.948C118.272 40.7227 117.804 40.3327 117.475 39.778C117.145 39.206 116.981 38.4 116.981 37.36V28H119.321V37.36C119.321 38.2613 119.555 38.8767 120.023 39.206C120.491 39.5353 121.08 39.7 121.791 39.7C122.12 39.7 122.458 39.648 122.805 39.544C123.151 39.4227 123.42 39.3013 123.611 39.18V28H125.951V41H124.001L123.871 40.22H123.741C123.411 40.5493 123.004 40.8093 122.519 41C122.033 41.1733 121.531 41.26 121.011 41.26ZM132.571 41.26C132.051 41.26 131.496 41.1993 130.907 41.078C130.335 40.974 129.849 40.8613 129.451 40.74V39.7H132.051C133.229 39.7 134.087 39.5527 134.625 39.258C135.162 38.946 135.431 38.4 135.431 37.62C135.431 37.1 135.283 36.684 134.989 36.372C134.694 36.06 134.313 35.8 133.845 35.592C133.394 35.3667 132.9 35.1587 132.363 34.968C131.843 34.76 131.349 34.5087 130.881 34.214C130.43 33.902 130.057 33.5033 129.763 33.018C129.468 32.5327 129.321 31.9 129.321 31.12C129.321 29.82 129.711 28.936 130.491 28.468C131.271 27.9827 132.441 27.74 134.001 27.74C134.521 27.74 135.075 27.792 135.665 27.896C136.254 28 136.739 28.1213 137.121 28.26V29.3H134.521C133.619 29.3 132.917 29.4387 132.415 29.716C131.912 29.9933 131.661 30.4613 131.661 31.12C131.661 31.64 131.808 32.056 132.103 32.368C132.397 32.68 132.77 32.9487 133.221 33.174C133.689 33.382 134.183 33.59 134.703 33.798C135.24 33.9887 135.734 34.24 136.185 34.552C136.653 34.8467 137.034 35.2367 137.329 35.722C137.623 36.2073 137.771 36.84 137.771 37.62C137.771 38.5733 137.589 39.3187 137.225 39.856C136.861 40.376 136.297 40.74 135.535 40.948C134.772 41.156 133.784 41.26 132.571 41.26Z" fill="#CCD6F6"/>
<path d="M39.5472 18.8174H28.8631L33.3281 29.7008L23.7602 29.661L28.1455 39.1092H37.2349L41.7797 50.1123H52.4638L47.9191 38.9896L65.5 39.189L61.1546 29.661H44.0122L39.5472 18.8174Z" fill="#030DFF"/>
<path d="M20.6229 0L0 50.0718H10.8557L15.3606 38.989H24.3703L19.9452 29.5806H19.1877L26.2041 12.7173L27.2805 15.2687H37.845L31.4266 0H20.6229Z" fill="#FFE000"/>
</svg>
