<svg width="146" height="51" viewBox="0 0 146 51" fill="none" xmlns="http://www.w3.org/2000/svg">
<path d="M56.64 35L62.08 12.6H66.24L71.68 35H68.8L67.36 29.24H60.96L59.52 35H56.64ZM61.44 27H66.88L64.224 15.8H64.096L61.44 27Z" fill="#FFE000"/>
<path d="M81.8125 35V17.06C82.4712 16.8693 83.1298 16.7393 83.7885 16.67C84.4645 16.5833 85.1925 16.54 85.9725 16.54C87.3592 16.54 88.4685 16.7393 89.3005 17.138C90.1498 17.5367 90.7565 18.2127 91.1205 19.166C91.5018 20.102 91.6925 21.3933 91.6925 23.04C91.6925 24.7213 91.5105 26.0473 91.1465 27.018C90.7998 27.9887 90.2625 28.6733 89.5345 29.072C88.8065 29.4707 87.8792 29.67 86.7525 29.67C86.3712 29.67 85.9205 29.644 85.4005 29.592C84.8978 29.54 84.4818 29.4793 84.1525 29.41V35H81.8125ZM84.1525 27.85H85.9725C86.7525 27.85 87.3938 27.7113 87.8965 27.434C88.3992 27.1567 88.7632 26.6713 88.9885 25.978C89.2312 25.2673 89.3525 24.288 89.3525 23.04C89.3525 21.7747 89.2312 20.7953 88.9885 20.102C88.7632 19.4087 88.3992 18.9233 87.8965 18.646C87.3938 18.3687 86.7525 18.23 85.9725 18.23H84.1525V27.85ZM95.3386 35V16.8H97.6786V35H95.3386ZM106.011 35.26C105.196 35.26 104.485 35.156 103.879 34.948C103.272 34.7227 102.804 34.3327 102.475 33.778C102.145 33.206 101.981 32.4 101.981 31.36V22H104.321V31.36C104.321 32.2613 104.555 32.8767 105.023 33.206C105.491 33.5353 106.08 33.7 106.791 33.7C107.12 33.7 107.458 33.648 107.805 33.544C108.151 33.4227 108.42 33.3013 108.611 33.18V22H110.951V35H109.001L108.871 34.22H108.741C108.411 34.5493 108.004 34.8093 107.519 35C107.033 35.1733 106.531 35.26 106.011 35.26ZM117.571 35.26C117.051 35.26 116.496 35.1993 115.907 35.078C115.335 34.974 114.849 34.8613 114.451 34.74V33.7H117.051C118.229 33.7 119.087 33.5527 119.625 33.258C120.162 32.946 120.431 32.4 120.431 31.62C120.431 31.1 120.283 30.684 119.989 30.372C119.694 30.06 119.313 29.8 118.845 29.592C118.394 29.3667 117.9 29.1587 117.363 28.968C116.843 28.76 116.349 28.5087 115.881 28.214C115.43 27.902 115.057 27.5033 114.763 27.018C114.468 26.5327 114.321 25.9 114.321 25.12C114.321 23.82 114.711 22.936 115.491 22.468C116.271 21.9827 117.441 21.74 119.001 21.74C119.521 21.74 120.075 21.792 120.665 21.896C121.254 22 121.739 22.1213 122.121 22.26V23.3H119.521C118.619 23.3 117.917 23.4387 117.415 23.716C116.912 23.9933 116.661 24.4613 116.661 25.12C116.661 25.64 116.808 26.056 117.103 26.368C117.397 26.68 117.77 26.9487 118.221 27.174C118.689 27.382 119.183 27.59 119.703 27.798C120.24 27.9887 120.734 28.24 121.185 28.552C121.653 28.8467 122.034 29.2367 122.329 29.722C122.623 30.2073 122.771 30.84 122.771 31.62C122.771 32.5733 122.589 33.3187 122.225 33.856C121.861 34.376 121.297 34.74 120.535 34.948C119.772 35.156 118.784 35.26 117.571 35.26Z" fill="#CCD6F6"/>
<path d="M0 45L28.0092 0V22.7308H23.6842V15.2308L18.1236 24.2308H22.5515V28.9615H14.9314L4.83982 45H0Z" fill="#FFE000"/>
<path d="M30.7894 13.1543V24.3466H25.5377V28.962H30.7894V40.2697H34.9084V28.962H45V24.3466H34.9084V13.1543H30.7894Z" fill="#CCD6F6"/>
</svg>
