<svg width="164" height="60" viewBox="0 0 164 60" fill="none" xmlns="http://www.w3.org/2000/svg">
<path d="M74.64 44L80.08 21.6H84.24L89.68 44H86.8L85.36 38.24H78.96L77.52 44H74.64ZM79.44 36H84.88L82.224 24.8H82.096L79.44 36Z" fill="#FFE000"/>
<path d="M99.8125 44V26.06C100.471 25.8693 101.13 25.7393 101.789 25.67C102.465 25.5833 103.193 25.54 103.973 25.54C105.359 25.54 106.469 25.7393 107.301 26.138C108.15 26.5367 108.757 27.2127 109.121 28.166C109.502 29.102 109.693 30.3933 109.693 32.04C109.693 33.7213 109.511 35.0473 109.147 36.018C108.8 36.9887 108.263 37.6733 107.535 38.072C106.807 38.4707 105.879 38.67 104.753 38.67C104.371 38.67 103.921 38.644 103.401 38.592C102.898 38.54 102.482 38.4793 102.153 38.41V44H99.8125ZM102.153 36.85H103.973C104.753 36.85 105.394 36.7113 105.897 36.434C106.399 36.1567 106.763 35.6713 106.989 34.978C107.231 34.2673 107.353 33.288 107.353 32.04C107.353 30.7747 107.231 29.7953 106.989 29.102C106.763 28.4087 106.399 27.9233 105.897 27.646C105.394 27.3687 104.753 27.23 103.973 27.23H102.153V36.85ZM113.339 44V25.8H115.679V44H113.339ZM124.011 44.26C123.196 44.26 122.485 44.156 121.879 43.948C121.272 43.7227 120.804 43.3327 120.475 42.778C120.145 42.206 119.981 41.4 119.981 40.36V31H122.321V40.36C122.321 41.2613 122.555 41.8767 123.023 42.206C123.491 42.5353 124.08 42.7 124.791 42.7C125.12 42.7 125.458 42.648 125.805 42.544C126.151 42.4227 126.42 42.3013 126.611 42.18V31H128.951V44H127.001L126.871 43.22H126.741C126.411 43.5493 126.004 43.8093 125.519 44C125.033 44.1733 124.531 44.26 124.011 44.26ZM135.571 44.26C135.051 44.26 134.496 44.1993 133.907 44.078C133.335 43.974 132.849 43.8613 132.451 43.74V42.7H135.051C136.229 42.7 137.087 42.5527 137.625 42.258C138.162 41.946 138.431 41.4 138.431 40.62C138.431 40.1 138.283 39.684 137.989 39.372C137.694 39.06 137.313 38.8 136.845 38.592C136.394 38.3667 135.9 38.1587 135.363 37.968C134.843 37.76 134.349 37.5087 133.881 37.214C133.43 36.902 133.057 36.5033 132.763 36.018C132.468 35.5327 132.321 34.9 132.321 34.12C132.321 32.82 132.711 31.936 133.491 31.468C134.271 30.9827 135.441 30.74 137.001 30.74C137.521 30.74 138.075 30.792 138.665 30.896C139.254 31 139.739 31.1213 140.121 31.26V32.3H137.521C136.619 32.3 135.917 32.4387 135.415 32.716C134.912 32.9933 134.661 33.4613 134.661 34.12C134.661 34.64 134.808 35.056 135.103 35.368C135.397 35.68 135.77 35.9487 136.221 36.174C136.689 36.382 137.183 36.59 137.703 36.798C138.24 36.9887 138.734 37.24 139.185 37.552C139.653 37.8467 140.034 38.2367 140.329 38.722C140.623 39.2073 140.771 39.84 140.771 40.62C140.771 41.5733 140.589 42.3187 140.225 42.856C139.861 43.376 139.297 43.74 138.535 43.948C137.772 44.156 136.784 44.26 135.571 44.26Z" fill="#CCD6F6"/>
<path d="M49.1111 15.8887H41.1666V31.7775H28.1666L23.1111 40.4442H41.1666V56.3331H49.1111V40.4442H64.9999V31.7775H49.1111V15.8887Z" fill="#CCD6F6"/>
<path d="M44.0555 0H32.5L0 56.3333H11.5555L44.0555 0Z" fill="#FFE000"/>
</svg>
