<svg width="145" height="59" viewBox="0 0 145 59" fill="none" xmlns="http://www.w3.org/2000/svg">
<path d="M77.64 43L83.08 20.6H87.24L92.68 43H89.8L88.36 37.24H81.96L80.52 43H77.64ZM82.44 35H87.88L85.224 23.8H85.096L82.44 35Z" fill="#FFE000"/>
<path d="M102.813 43V25.06C103.471 24.8693 104.13 24.7393 104.789 24.67C105.465 24.5833 106.193 24.54 106.973 24.54C108.359 24.54 109.469 24.7393 110.301 25.138C111.15 25.5367 111.757 26.2127 112.121 27.166C112.502 28.102 112.693 29.3933 112.693 31.04C112.693 32.7213 112.511 34.0473 112.147 35.018C111.8 35.9887 111.263 36.6733 110.535 37.072C109.807 37.4707 108.879 37.67 107.753 37.67C107.371 37.67 106.921 37.644 106.401 37.592C105.898 37.54 105.482 37.4793 105.153 37.41V43H102.813ZM105.153 35.85H106.973C107.753 35.85 108.394 35.7113 108.897 35.434C109.399 35.1567 109.763 34.6713 109.989 33.978C110.231 33.2673 110.353 32.288 110.353 31.04C110.353 29.7747 110.231 28.7953 109.989 28.102C109.763 27.4087 109.399 26.9233 108.897 26.646C108.394 26.3687 107.753 26.23 106.973 26.23H105.153V35.85ZM116.339 43V24.8H118.679V43H116.339ZM127.011 43.26C126.196 43.26 125.485 43.156 124.879 42.948C124.272 42.7227 123.804 42.3327 123.475 41.778C123.145 41.206 122.981 40.4 122.981 39.36V30H125.321V39.36C125.321 40.2613 125.555 40.8767 126.023 41.206C126.491 41.5353 127.08 41.7 127.791 41.7C128.12 41.7 128.458 41.648 128.805 41.544C129.151 41.4227 129.42 41.3013 129.611 41.18V30H131.951V43H130.001L129.871 42.22H129.741C129.411 42.5493 129.004 42.8093 128.519 43C128.033 43.1733 127.531 43.26 127.011 43.26ZM138.571 43.26C138.051 43.26 137.496 43.1993 136.907 43.078C136.335 42.974 135.849 42.8613 135.451 42.74V41.7H138.051C139.229 41.7 140.087 41.5527 140.625 41.258C141.162 40.946 141.431 40.4 141.431 39.62C141.431 39.1 141.283 38.684 140.989 38.372C140.694 38.06 140.313 37.8 139.845 37.592C139.394 37.3667 138.9 37.1587 138.363 36.968C137.843 36.76 137.349 36.5087 136.881 36.214C136.43 35.902 136.057 35.5033 135.763 35.018C135.468 34.5327 135.321 33.9 135.321 33.12C135.321 31.82 135.711 30.936 136.491 30.468C137.271 29.9827 138.441 29.74 140.001 29.74C140.521 29.74 141.075 29.792 141.665 29.896C142.254 30 142.739 30.1213 143.121 30.26V31.3H140.521C139.619 31.3 138.917 31.4387 138.415 31.716C137.912 31.9933 137.661 32.4613 137.661 33.12C137.661 33.64 137.808 34.056 138.103 34.368C138.397 34.68 138.77 34.9487 139.221 35.174C139.689 35.382 140.183 35.59 140.703 35.798C141.24 35.9887 141.734 36.24 142.185 36.552C142.653 36.8467 143.034 37.2367 143.329 37.722C143.623 38.2073 143.771 38.84 143.771 39.62C143.771 40.5733 143.589 41.3187 143.225 41.856C142.861 42.376 142.297 42.74 141.535 42.948C140.772 43.156 139.784 43.26 138.571 43.26Z" fill="#0077FE"/>
<path d="M21.2401 0L0 51.5832H10.9891L15.69 40.1841H25.0125L22.7573 35.3456L20.5021 30.5071H19.6808L26.8167 13.2033L27.9648 15.8276H38.8719L32.3933 0H21.2401Z" fill="#FFE000"/>
<path d="M53.6334 51.5832H42.6443L37.9434 40.1841H33.2821H28.6209L24.1104 30.5071H29.0316H33.9527L29.4 19.477H40.3891L42.7042 25.0251L44.955 30.5071H49.3503H56.0937L60.6041 40.1841H53.6009H48.9397L53.6334 51.5832Z" fill="#0077FE"/>
</svg>
