<svg width="645" height="233" viewBox="0 0 645 233" fill="none" xmlns="http://www.w3.org/2000/svg">
<rect width="645" height="233" fill="white"/>
<g clip-path="url(#clip0_573_34)">
<path d="M79.8008 177.4L65.3008 156.1L79.8008 141.6L94.4008 156.1L79.8008 177.4Z" fill="#FF9900"/>
<path d="M120 96.4V144.4L100 129.3C100 129.3 102.2 110.6 102.6 96.4C102.8 89.4 96.2 83.4 80 75.4C63.7 83.5 57.2 89.4 57.4 96.4C57.8 110.6 60 129.3 60 129.3L40 144.4V96.4C40 87.9 43.6 80.2 50.7 73.6C55.7 68.9 62.6 64.6 73 59.5L80 56L87 59.5C97.4 64.6 104.3 69 109.3 73.6C116.4 80.2 120 87.9 120 96.4Z" fill="#FF3333"/>
<path d="M197.199 138.8L180.199 122.3H158.699V138.8H146.699V79.1001H190.399C200.699 79.1001 209.299 89.0001 209.299 100.7C209.299 109.9 203.799 118.4 196.099 121.2L213.999 138.8H197.199ZM189.899 109.2C193.799 109.2 197.299 105.2 197.299 100.7C197.299 96.1001 193.899 92.2001 189.899 92.2001H158.699V109.1H189.899V109.2Z" fill="#637789"/>
<path d="M249.6 140.1C228.3 140.1 216.1 129.3 216.1 110.5V107.6C216.1 88.7999 228.3 77.8999 249.6 77.8999C270.9 77.8999 283.1 88.6999 283.1 107.6V110.5C283.1 129.3 270.9 140.1 249.6 140.1ZM249.6 91.6999C236.7 91.6999 228.2 94.3999 228.2 107.8V110.2C228.2 123.5 236.8 126.3 249.6 126.3C260.8 126.3 271.1 124.4 271.1 110.2V107.7C271.1 93.5999 260.8 91.6999 249.6 91.6999Z" fill="#637789"/>
<path d="M322.699 140.1C301.399 140.1 289.199 129.3 289.199 110.5V107.6C289.199 88.7999 301.399 77.8999 322.699 77.8999C343.999 77.8999 356.199 88.6999 356.199 107.6V110.5C356.199 129.3 343.999 140.1 322.699 140.1ZM322.699 91.6999C309.799 91.6999 301.299 94.3999 301.299 107.8V110.2C301.299 123.5 309.899 126.3 322.699 126.3C333.899 126.3 344.199 124.4 344.199 110.2V107.7C344.299 93.5999 333.899 91.6999 322.699 91.6999Z" fill="#637789"/>
<path d="M571 138.8V92.8001H548.9V79.1001H605.1V92.8001H583V138.8H571Z" fill="#637789"/>
<path d="M395.7 139.8C385.7 139.8 362.5 136.9 362.5 110.4V107.4C362.5 80.9 385.7 78 395.7 78C410.6 78 416.4 81 417.8 81.9L418.3 82.2V93.9L416.9 93.4C414.6 92.6 406.5 90 395.7 90C382 90 375.1 95.9 375.1 107.6V110.1C375.1 121.8 382 127.7 395.7 127.7C406.4 127.7 414.6 125.1 416.9 124.3L418.3 123.8V135.5L417.8 135.8C416.4 136.8 410.6 139.8 395.7 139.8Z" fill="#637789"/>
<path d="M466.101 138.5L438.401 112.9V138.5H425.801V79.3H438.401V105.5L465.501 79.3H483.901L453.501 108.9L485.801 138.5H466.101Z" fill="#637789"/>
<path d="M489.5 138.5V79.3H542.8V91.2H502.1V103.2H539.8V114.6H502.1V126.6H542.8V138.5H489.5Z" fill="#637789"/>
</g>
<defs>
<clipPath id="clip0_573_34">
<rect width="578" height="128" fill="white" transform="translate(34 49)"/>
</clipPath>
</defs>
</svg>
