<svg width="113" height="44" viewBox="0 0 113 44" fill="none" xmlns="http://www.w3.org/2000/svg">
<rect width="113" height="44" fill="white"/>
<g clip-path="url(#clip0_575_12)">
<mask id="mask0_575_12" style="mask-type:luminance" maskUnits="userSpaceOnUse" x="11" y="5" width="91" height="34">
<path d="M102 5H11V39H102V5Z" fill="white"/>
</mask>
<g mask="url(#mask0_575_12)">
<path d="M102 5H11V39H102V5Z" fill="white"/>
<path d="M25.05 13.112L18.024 9.056L11 13.112V9.056L18.025 5L25.051 9.056L25.05 13.112Z" fill="#A435F0"/>
<path d="M11 16.5179H14.68V25.4589C14.68 27.7689 16.405 28.8949 18.025 28.8949C19.659 28.8949 21.371 27.7389 21.371 25.4279V16.5179H25.051V25.6719C25.051 27.7999 24.382 29.4419 23.044 30.5679C21.705 31.6929 20.033 32.2409 17.994 32.2409C15.957 32.2409 14.284 31.6939 12.977 30.5679C11.669 29.4429 11 27.8619 11 25.7629V16.5179ZM56.866 27.6299C55.752 28.6219 54.483 29.1079 53.036 29.1079C50.396 29.1079 48.626 27.6039 48.426 25.2749H60.316C60.316 25.2749 60.396 24.5229 60.396 23.8169C60.396 21.6269 59.696 19.8019 58.266 18.3119C56.868 16.8219 55.044 16.0919 52.823 16.0919C50.482 16.0919 48.565 16.8219 47.044 18.3119C45.554 19.8019 44.794 21.7479 44.794 24.1819V24.3019C44.794 26.7049 45.554 28.6209 47.044 30.0509C48.534 31.4799 50.511 32.2099 52.914 32.2099C55.708 32.2099 57.931 31.1079 59.599 29.2079L56.866 27.6299ZM49.872 20.1669C50.692 19.5279 51.697 19.1939 52.822 19.1939C53.886 19.1939 54.768 19.5279 55.529 20.1979C56.255 20.8079 56.647 21.5569 56.681 22.4179H48.52C48.638 21.5279 49.088 20.7779 49.873 20.1679L49.872 20.1669ZM93.91 34.2759C92.417 37.8009 90.855 38.9999 88.46 38.9999H86.8V35.7379H88.142C88.966 35.7379 89.732 35.4279 90.462 33.7439L91.192 32.0579L84.896 16.5179H88.637L93.108 27.7099L97.701 16.5179H101.441L93.91 34.2759ZM39.377 10.6489V17.9059C38.171 16.8259 36.295 16.1829 34.481 16.1829C32.321 16.1829 30.497 16.9429 29.007 18.4929C27.547 20.0139 26.817 21.8989 26.817 24.1799C26.817 26.4619 27.547 28.3469 29.007 29.8979C30.497 31.4189 32.322 32.1799 34.481 32.1799C36.971 32.1799 38.545 31.2009 39.377 30.4339V31.8449H43.027V10.6499L39.377 10.6489ZM38.282 27.5269C37.4 28.4089 36.275 28.8659 34.967 28.8659C33.659 28.8659 32.595 28.4089 31.713 27.5269C30.863 26.6449 30.436 25.5199 30.436 24.1819C30.436 22.8429 30.862 21.7179 31.713 20.8359C32.595 19.9539 33.659 19.4979 34.967 19.4979C36.275 19.4979 37.4 19.9539 38.282 20.8359C39.194 21.7179 39.652 22.8429 39.652 24.1819C39.652 25.5199 39.194 26.6449 38.282 27.5269ZM79.222 16.2139C76.45 16.2139 75.009 17.3639 74.022 18.4719C73.627 17.7189 72.515 16.2139 69.917 16.2139C67.721 16.2139 66.427 17.3239 65.781 18.1139V16.5199H62.163V31.8469H65.781V23.0269C65.781 20.9589 67.059 19.4689 68.761 19.4689C70.496 19.4689 71.499 20.7769 71.499 22.8749V31.8459H75.118V23.0259C75.118 20.9279 76.364 19.4679 78.158 19.4679C79.892 19.4679 80.895 20.7759 80.895 22.8729V31.8449H84.545V22.3569C84.545 18.3609 82.397 16.2149 79.222 16.2149V16.2139Z" fill="black"/>
</g>
</g>
<defs>
<clipPath id="clip0_575_12">
<rect width="91" height="34" fill="white" transform="translate(11 5)"/>
</clipPath>
</defs>
</svg>
