<svg width="64" height="64" viewBox="0 0 64 64" fill="none" xmlns="http://www.w3.org/2000/svg">
<rect width="64" height="64" rx="32" fill="#CCD6F6"/>
<path d="M17.8666 39.2001C17.3777 38.7112 17.1333 38.089 17.1333 37.3335C17.1333 36.5779 17.3777 35.9557 17.8666 35.4668L30.1333 23.2001C30.4 22.9335 30.6889 22.745 31 22.6348C31.3111 22.5246 31.6444 22.4686 32 22.4668C32.3555 22.4668 32.7004 22.5335 33.0346 22.6668C33.3689 22.8001 33.6462 22.9779 33.8666 23.2001L46.1333 35.4668C46.6222 35.9557 46.8666 36.5779 46.8666 37.3335C46.8666 38.089 46.6222 38.7112 46.1333 39.2001C45.6444 39.689 45.0222 39.9335 44.2666 39.9335C43.5111 39.9335 42.8889 39.689 42.4 39.2001L32 28.8001L21.6 39.2001C21.1111 39.689 20.4889 39.9335 19.7333 39.9335C18.9777 39.9335 18.3555 39.689 17.8666 39.2001Z" fill="#0A192F"/>
</svg>
