<svg width="18" height="19" viewBox="0 0 18 19" fill="none" xmlns="http://www.w3.org/2000/svg">
<g clip-path="url(#clip0_520_6)">
<path d="M9 0.854126C10.7144 0.854028 12.3911 1.35159 13.8218 2.28501C15.2525 3.21843 16.3742 4.54658 17.0475 6.1045C17.7208 7.66242 17.9161 9.38146 17.6091 11.0481C17.3021 12.7147 16.5064 14.2556 15.3207 15.4792C14.135 16.7028 12.6117 17.5553 10.9399 17.9307C9.26814 18.3062 7.52155 18.1881 5.91709 17.5912C4.31263 16.9942 2.921 15.9447 1.91505 14.5729C0.909102 13.2012 0.333157 11.5676 0.25875 9.87519L0.25 9.49996L0.25875 9.12473C0.356609 6.89886 1.32031 4.79624 2.94889 3.25535C4.57747 1.71446 6.74519 0.854255 9 0.854126Z" fill="#010101"/>
</g>
<defs>
<clipPath id="clip0_520_6">
<rect width="18" height="19" fill="white"/>
</clipPath>
</defs>
</svg>
