<svg width="42" height="42" viewBox="0 0 42 42" fill="none" xmlns="http://www.w3.org/2000/svg">
<g clip-path="url(#clip0_534_39)">
<path fill-rule="evenodd" clip-rule="evenodd" d="M34.1162 5.48278C34.5038 5.24935 34.9667 5.1751 35.4078 5.27559C35.8489 5.37609 36.234 5.64352 36.4822 6.02178L38.2147 8.66428C38.441 9.00964 38.5379 9.42391 38.4883 9.83383C38.4387 10.2438 38.2457 10.6229 37.9435 10.9043L37.9382 10.9113L37.9137 10.934L37.814 11.0268L37.4202 11.403C35.2414 13.5163 33.1288 15.6967 31.0852 17.941C27.2405 22.169 22.6747 27.7025 19.6017 33.0715C18.7442 34.5695 16.6495 34.8915 15.407 33.5983L4.05822 21.8068C3.89558 21.6377 3.76859 21.4377 3.6848 21.2186C3.601 20.9995 3.56211 20.7658 3.57044 20.5314C3.57876 20.2969 3.63414 20.0666 3.73326 19.854C3.83239 19.6414 3.97325 19.4509 4.14747 19.2938L7.57747 16.1998C7.87889 15.928 8.2654 15.7695 8.67083 15.7513C9.07626 15.7331 9.47541 15.8564 9.79997 16.1L15.5907 20.4418C24.6347 11.522 29.7657 8.09903 34.1162 5.48278Z" fill="#FFE000"/>
</g>
<defs>
<clipPath id="clip0_534_39">
<rect width="42" height="42" fill="white"/>
</clipPath>
</defs>
</svg>
