<svg width="42" height="42" viewBox="0 0 42 42" fill="none" xmlns="http://www.w3.org/2000/svg">
<path d="M8.00624 8.00587C8.4985 7.51376 9.16605 7.2373 9.86211 7.2373C10.5582 7.2373 11.2257 7.51376 11.718 8.00587L21 17.2879L30.282 8.00587C30.7771 7.5277 31.4401 7.26312 32.1284 7.2691C32.8167 7.27508 33.4751 7.55115 33.9618 8.03785C34.4485 8.52454 34.7245 9.18292 34.7305 9.87119C34.7365 10.5595 34.4719 11.2225 33.9937 11.7176L24.7117 20.9996L33.9937 30.2816C34.4719 30.7767 34.7365 31.4398 34.7305 32.128C34.7245 32.8163 34.4485 33.4747 33.9618 33.9614C33.4751 34.4481 32.8167 34.7242 32.1284 34.7301C31.4401 34.7361 30.7771 34.4715 30.282 33.9934L21 24.7114L11.718 33.9934C11.2229 34.4715 10.5598 34.7361 9.87156 34.7301C9.18329 34.7242 8.52491 34.4481 8.03821 33.9614C7.55152 33.4747 7.27545 32.8163 7.26947 32.128C7.26349 31.4398 7.52807 30.7767 8.00624 30.2816L17.2882 20.9996L8.00624 11.7176C7.51412 11.2254 7.23767 10.5578 7.23767 9.86174C7.23767 9.16569 7.51412 8.49813 8.00624 8.00587Z" fill="#CCD6F6"/>
</svg>
