<svg width="42" height="42" viewBox="0 0 42 42" fill="none" xmlns="http://www.w3.org/2000/svg">
<g clip-path="url(#clip0_713_21)">
<path d="M35 30.625C35.6741 30.6253 36.3223 30.885 36.8102 31.3502C37.2981 31.8154 37.5883 32.4505 37.6207 33.1239C37.6531 33.7972 37.4252 34.4572 36.9842 34.9671C36.5432 35.477 35.923 35.7977 35.252 35.8628L35 35.875H7C6.32587 35.8747 5.67771 35.615 5.18982 35.1498C4.70194 34.6846 4.41173 34.0495 4.37933 33.3761C4.34694 32.7028 4.57484 32.0428 5.01581 31.5329C5.45678 31.023 6.07702 30.7023 6.748 30.6372L7 30.625H35ZM35 18.375C35.6962 18.375 36.3639 18.6516 36.8562 19.1438C37.3484 19.6361 37.625 20.3038 37.625 21C37.625 21.6962 37.3484 22.3639 36.8562 22.8562C36.3639 23.3484 35.6962 23.625 35 23.625H7C6.30381 23.625 5.63613 23.3484 5.14384 22.8562C4.65156 22.3639 4.375 21.6962 4.375 21C4.375 20.3038 4.65156 19.6361 5.14384 19.1438C5.63613 18.6516 6.30381 18.375 7 18.375H35ZM35 6.125C35.6962 6.125 36.3639 6.40156 36.8562 6.89384C37.3484 7.38613 37.625 8.05381 37.625 8.75C37.625 9.44619 37.3484 10.1139 36.8562 10.6062C36.3639 11.0984 35.6962 11.375 35 11.375H7C6.30381 11.375 5.63613 11.0984 5.14384 10.6062C4.65156 10.1139 4.375 9.44619 4.375 8.75C4.375 8.05381 4.65156 7.38613 5.14384 6.89384C5.63613 6.40156 6.30381 6.125 7 6.125H35Z" fill="#C2C9DD"/>
</g>
<defs>
<clipPath id="clip0_713_21">
<rect width="42" height="42" fill="white"/>
</clipPath>
</defs>
</svg>
