<svg width="120" height="120" viewBox="0 0 120 120" fill="none" xmlns="http://www.w3.org/2000/svg">
<g clip-path="url(#clip0_502_2)">
<path d="M17.58 102.42C11.8494 96.8852 7.27844 90.2645 4.1339 82.9443C0.989363 75.624 -0.66581 67.7508 -0.735039 59.7841C-0.804268 51.8173 0.713834 43.9165 3.73069 36.5427C6.74754 29.169 11.2027 22.4699 16.8363 16.8363C22.4699 11.2027 29.169 6.74754 36.5427 3.73069C43.9165 0.713834 51.8173 -0.804268 59.7841 -0.735039C67.7508 -0.66581 75.624 0.989363 82.9443 4.1339C90.2645 7.27844 96.8852 11.8494 102.42 17.58C113.349 28.8961 119.397 44.0523 119.26 59.7841C119.124 75.5159 112.814 90.5646 101.689 101.689C90.5646 112.814 75.5159 119.124 59.7841 119.26C44.0523 119.397 28.8961 113.349 17.58 102.42ZM93.96 93.96C102.967 84.9532 108.027 72.7375 108.027 60C108.027 47.2625 102.967 35.0467 93.96 26.04C84.9532 17.0332 72.7375 11.9733 60 11.9733C47.2625 11.9733 35.0467 17.0332 26.04 26.04C17.0332 35.0467 11.9733 47.2625 11.9733 60C11.9733 72.7375 17.0332 84.9532 26.04 93.96C35.0467 102.967 47.2625 108.027 60 108.027C72.7375 108.027 84.9532 102.967 93.96 93.96ZM42 36L90 60L42 84V36Z" fill="#FFE000"/>
</g>
<defs>
<clipPath id="clip0_502_2">
<rect width="120" height="120" fill="white"/>
</clipPath>
</defs>
</svg>
